<?xml version="1.0" encoding="UTF-8" standalone="no"?>
<!DOCTYPE svg PUBLIC "-//W3C//DTD SVG 1.1//EN"
"http://www.w3.org/Graphics/SVG/1.1/DTD/svg11.dtd">
<svg viewBox="0 0 935 1210" version="1.1" xmlns="http://www.w3.org/2000/svg" xmlns:xlink="http://www.w3.org/1999/xlink">
<defs>
<style type="text/css"><![CDATA[
.g0{
fill: #FFF;
}
]]></style>
</defs>
<path fill-rule="evenodd" d="M110,129.3H772.2V110H110v19.3Z" class="g0"/>
<path fill-rule="evenodd" d="M110,151.5H816.1V132.2H110v19.3Z" class="g0"/>
<path fill-rule="evenodd" d="M110,173.6H824.6V154.3H110v19.3Z" class="g0"/>
<path fill-rule="evenodd" d="M110,195.8H761.8V176.5H110v19.3Z" class="g0"/>
<path fill-rule="evenodd" d="M110,217.9h67.1V198.6H110v19.3Z" class="g0"/>
<path fill-rule="evenodd" d="M110,262.2H822.6V242.9H110v19.3Z" class="g0"/>
<path fill-rule="evenodd" d="M110,284.4H791.9V265.1H110v19.3Z" class="g0"/>
<path fill-rule="evenodd" d="M110,306.5H807.8V287.2H110v19.3Z" class="g0"/>
<path fill-rule="evenodd" d="M110,328.7H809.6V309.4H110v19.3Z" class="g0"/>
<path fill-rule="evenodd" d="M110,350.9H783.5V331.5H110v19.4Z" class="g0"/>
<path fill-rule="evenodd" d="M110,373H748.8V353.7H110V373Z" class="g0"/>
<path fill-rule="evenodd" d="M110,395.2H785.2V375.8H110v19.4Z" class="g0"/>
<path fill-rule="evenodd" d="M110,417.3H773.1V398H110v19.3Z" class="g0"/>
<path fill-rule="evenodd" d="M110,439.5H813.5V420.1H110v19.4Z" class="g0"/>
<path fill-rule="evenodd" d="M110,461.6H798.5V442.3H110v19.3Z" class="g0"/>
<path fill-rule="evenodd" d="M110,483.8H817.9V464.4H110v19.4Z" class="g0"/>
<path fill-rule="evenodd" d="M110,505.9H777.9V486.6H110v19.3Z" class="g0"/>
<path fill-rule="evenodd" d="M110,528.1H806V508.8H110v19.3Z" class="g0"/>
<path fill-rule="evenodd" d="M110,550.2H778.6V530.9H110v19.3Z" class="g0"/>
<path fill-rule="evenodd" d="M110,572.4H477V553.1H110v19.3Z" class="g0"/>
<path fill-rule="evenodd" d="M110,616.7H805.1V597.4H110v19.3Z" class="g0"/>
<path fill-rule="evenodd" d="M110,638.8H802.2V619.5H110v19.3Z" class="g0"/>
<path fill-rule="evenodd" d="M110,661H792.7V641.7H110V661Z" class="g0"/>
<path fill-rule="evenodd" d="M110,683.1H823.7V663.8H110v19.3Z" class="g0"/>
<path fill-rule="evenodd" d="M110,705.3h53.2V686H110v19.3Z" class="g0"/>
</svg>