<?xml version="1.0" encoding="UTF-8"?>
<svg id="Layer_1" data-name="Layer 1" xmlns="http://www.w3.org/2000/svg" viewBox="0 0 94 110.92">
  <defs>
    <style>
      .cls-1 {
        fill: #ffa116;
      }

      .cls-2 {
        fill: #b3b3b3;
      }

      .cls-2, .cls-3 {
        fill-rule: evenodd;
      }
    </style>
  </defs>
  <g id="LeetCode_s-new-logo" data-name="LeetCode’s-new-logo">
    <g id="logo_english_dark" data-name="logo english dark">
      <g id="Logo_English" data-name="Logo English">
        <g id="Group-10">
          <path id="Combined-Shape" class="cls-1" d="M67.51,83.07c2.49-2.49,6.53-2.48,9.02.01s2.48,6.54-.01,9.03l-11.07,11.06c-10.22,10.2-26.87,10.35-37.26.34-.06-.06-4.69-4.59-19.95-19.56-10.15-9.95-11.16-25.88-1.61-36.11l17.81-19.07c9.48-10.15,26.96-11.26,37.8-2.5l16.18,13.08c2.74,2.22,3.17,6.24.96,8.98-2.21,2.74-6.23,3.17-8.97.96l-16.18-13.08c-5.67-4.58-15.59-3.96-20.48,1.28l-17.81,19.07c-4.65,4.98-4.14,13,1.22,18.26,11.21,10.99,19.84,19.46,19.85,19.47,5.4,5.2,14.13,5.12,19.44-.17l11.07-11.06Z"/>
          <path id="Path-2" class="cls-2" d="M40.61,72c-3.52,0-6.38-2.86-6.38-6.39s2.85-6.39,6.38-6.39h47.02c3.52,0,6.38,2.86,6.38,6.39s-2.85,6.39-6.38,6.39h-47.02Z"/>
          <path id="Stroke-3" class="cls-3" d="M49.41,2.02c2.41-2.58,6.44-2.71,9.01-.3,2.57,2.41,2.71,6.45.3,9.03L15.93,56.57c-4.65,4.98-4.14,13,1.22,18.26l19.76,19.38c2.52,2.47,2.56,6.51.1,9.03-2.46,2.52-6.5,2.56-9.02.1l-19.76-19.38c-10.15-9.95-11.16-25.88-1.61-36.11L49.41,2.02Z"/>
        </g>
      </g>
    </g>
  </g>
</svg>